REM MD5 01dbd7d5c2c7ab58f9d5e18dd00fcd4a
FILE "Euro Demo 03-00 (Germany).bin" BINARY
  TRACK 01 MODE2/2352
    INDEX 01 00:00:00
  TRACK 02 AUDIO
    INDEX 00 36:00:67
    INDEX 01 36:02:67
  TRACK 03 AUDIO
    INDEX 00 38:50:06
    INDEX 01 38:52:06
REM LEADOUT 41:53:38
